# xmcd
#
# Track frame offsets:
#	150
#	16854
#	29661
#	46811
#	71144
#	87312
#	102809
#	119145
#	137164
#	154992
#	168430
#
# Disc length: 2549 seconds
#
# Revision: 1
# Processed by: cddbd v1.5.2PL0 Copyright (c) Steve Scherf et al.
# Submitted via: audiograbber 1.83.01
#
DISCID=9709f30b
DTITLE=Guy Verlinde - Better Days Ahead
DYEAR=2015
DGENRE=Blues
TTITLE0=Better Days Ahead
TTITLE1=Heaven Inside My Head
TTITLE2=Wild Nights
TTITLE3=Sacred Ground
TTITLE4=Into The Light
TTITLE5=Learnin' How To Love You
TTITLE6=Call On Me
TTITLE7=The One
TTITLE8=Feel Alive
TTITLE9=Release Yourself From Fear
TTITLE10=Don't Tell Me That You Love Me
EXTD=
EXTT0=
EXTT1=
EXTT2=
EXTT3=
EXTT4=
EXTT5=
EXTT6=
EXTT7=
EXTT8=
EXTT9=
EXTT10=
PLAYORDER=
